<mxfile host="app.diagrams.net" modified="2021-06-16T12:30:48.982Z" agent="5.0 (Macintosh; Intel Mac OS X 10_15_7) AppleWebKit/537.36 (KHTML, like Gecko) Chrome/86.0.4240.193 Safari/537.36" etag="iy_Sd-7NXRDnKPM0_wzs" version="14.7.10" type="github">
  <diagram id="kDJYZBq6efAjz9YTaLig" name="Page-1">
    <mxGraphModel dx="946" dy="536" grid="1" gridSize="10" guides="1" tooltips="1" connect="1" arrows="1" fold="1" page="1" pageScale="1" pageWidth="827" pageHeight="1169" math="0" shadow="0">
      <root>
        <mxCell id="0" />
        <mxCell id="1" parent="0" />
        <mxCell id="yNyOrCnBwZ_fp24aBwio-7" value="" style="edgeStyle=orthogonalEdgeStyle;rounded=0;orthogonalLoop=1;jettySize=auto;html=1;" parent="1" source="yNyOrCnBwZ_fp24aBwio-2" target="yNyOrCnBwZ_fp24aBwio-3" edge="1">
          <mxGeometry relative="1" as="geometry" />
        </mxCell>
        <mxCell id="yNyOrCnBwZ_fp24aBwio-2" value="&lt;pre&gt;往容器中注入&lt;/pre&gt;&lt;pre&gt;DubboConfigConfiguration.Single.class&lt;/pre&gt;" style="rounded=1;whiteSpace=wrap;html=1;fillColor=#ffe6cc;strokeColor=#d79b00;" parent="1" vertex="1">
          <mxGeometry x="50" y="140" width="340" height="70" as="geometry" />
        </mxCell>
        <mxCell id="yNyOrCnBwZ_fp24aBwio-8" value="" style="edgeStyle=orthogonalEdgeStyle;rounded=0;orthogonalLoop=1;jettySize=auto;html=1;" parent="1" source="yNyOrCnBwZ_fp24aBwio-3" target="yNyOrCnBwZ_fp24aBwio-4" edge="1">
          <mxGeometry relative="1" as="geometry" />
        </mxCell>
        <mxCell id="yNyOrCnBwZ_fp24aBwio-3" value="这个Bean上有@EnableDubboConfigBindings" style="rounded=1;whiteSpace=wrap;html=1;fillColor=#f5f5f5;strokeColor=#666666;fontColor=#333333;" parent="1" vertex="1">
          <mxGeometry x="440" y="140" width="280" height="70" as="geometry" />
        </mxCell>
        <mxCell id="SyVUncfLa_8jJbQ0ztgb-1" value="" style="edgeStyle=orthogonalEdgeStyle;rounded=0;orthogonalLoop=1;jettySize=auto;html=1;" edge="1" parent="1" source="yNyOrCnBwZ_fp24aBwio-4" target="yNyOrCnBwZ_fp24aBwio-6">
          <mxGeometry relative="1" as="geometry" />
        </mxCell>
        <mxCell id="yNyOrCnBwZ_fp24aBwio-4" value="&lt;pre&gt;DubboConfigBindingsRegistrar&lt;/pre&gt;" style="rounded=1;whiteSpace=wrap;html=1;fillColor=#dae8fc;strokeColor=#6c8ebf;" parent="1" vertex="1">
          <mxGeometry x="790" y="140" width="280" height="70" as="geometry" />
        </mxCell>
        <mxCell id="yNyOrCnBwZ_fp24aBwio-6" value="将配置文件中的配置转成对应的对象，并注入容器中" style="shape=note;strokeWidth=2;fontSize=14;size=20;whiteSpace=wrap;html=1;fillColor=#fff2cc;strokeColor=#d6b656;fontColor=#666600;" parent="1" vertex="1">
          <mxGeometry x="825" y="240" width="210" height="80" as="geometry" />
        </mxCell>
        <mxCell id="yNyOrCnBwZ_fp24aBwio-9" value="import" style="text;html=1;strokeColor=none;fillColor=none;align=center;verticalAlign=middle;whiteSpace=wrap;rounded=0;" parent="1" vertex="1">
          <mxGeometry x="740" y="150" width="40" height="20" as="geometry" />
        </mxCell>
      </root>
    </mxGraphModel>
  </diagram>
</mxfile>
